PathFileType	4	(X/Y/Z)	./resultDataOpenSim/trcMotMarkerGrf/sub10/qtm-02-07.trc
DataRate	CameraRate	NumFrames	NumMarkers	Units	OrigDataRate	OrigDataStartFrame	OrigNumFrames
250.000000	250.000000	7	24	m	250.000000	129	514
Frame#	Time	L.Toe.Tip			R.Toe.Tip			L.Ankle.Lat			R.Ankle.Lat			L.Ankle.Med			R.Ankle.Med			L.Heel			R.Heel			L.Knee.Lat			R.Knee.Lat			L.Knee.Med			R.Knee.Med			L.Thigh.Upper			R.Thigh.Upper			L.ASIS			R.ASIS			V.Sacral			L.Acromium			R.Acromium			C7			L.Elbow			R.Elbow			L.Wrist.Lat			R.Wrist.Lat
		X1	Y1	Z1	X2	Y2	Z2	X3	Y3	Z3	X4	Y4	Z4	X5	Y5	Z5	X6	Y6	Z6	X7	Y7	Z7	X8	Y8	Z8	X9	Y9	Z9	X10	Y10	Z10	X11	Y11	Z11	X12	Y12	Z12	X13	Y13	Z13	X14	Y14	Z14	X15	Y15	Z15	X16	Y16	Z16	X17	Y17	Z17	X18	Y18	Z18	X19	Y19	Z19	X20	Y20	Z20	X21	Y21	Z21	X22	Y22	Z22	X23	Y23	Z23	X24	Y24	Z24

129	0.512	-0.2874629	0.079128277	-0.10540066	-0.74122891	0.039009385	0.034085728	-0.42383023	0.075037876	-0.10966209	-0.88218379	0.055824347	0.065923191	-0.40496336	0.10652804	-0.030740127	-0.86124856	0.081593126	-0.018232339	-0.47103186	0.036653917	-0.050545374	-0.93290593	0.033220826	0.015890613	-0.49096996	0.46035884	-0.1493916	-0.76013816	0.44052012	0.11117879	-0.460928	0.44601824	-0.0304888	-0.74561946	0.44305969	-0.018538631	-0.61952808	0.82715317	-0.20984979	-0.70352458	0.85090046	0.16676487	-0.58103391	0.93811596	-0.13549861	-0.61591407	0.94026317	0.10918596	-0.79359402	0.9456616	-0.044687106	-0.65431734	1.4087018	-0.16791356	-0.67851063	1.4025542	0.15403114	-0.74859797	1.4338079	-0.018540879	-0.78615681	1.097108	-0.25260133	-0.71667109	1.0491008	0.21947962	-0.67954008	0.87686061	-0.27140489	-0.52372332	0.8929945	0.23449314
130	0.516	-0.2714013	0.082395711	-0.10445139	-0.7411493	0.038958081	0.034052286	-0.40777008	0.075099203	-0.11004758	-0.88218143	0.055915724	0.065854834	-0.39029196	0.10684032	-0.030834844	-0.86093776	0.081592375	-0.018438314	-0.45385731	0.03495332	-0.051748371	-0.93280248	0.033464319	0.015630064	-0.48535817	0.45849363	-0.14931096	-0.75732836	0.43975776	0.11090404	-0.45611704	0.44422303	-0.03023301	-0.74249747	0.44238425	-0.018713814	-0.61370933	0.82581017	-0.20960705	-0.6991728	0.85001025	0.16679544	-0.57501555	0.93687507	-0.13526336	-0.61100848	0.93920322	0.10933361	-0.78870155	0.94427349	-0.046237444	-0.64922344	1.40718	-0.16783255	-0.6733976	1.4011568	0.15403766	-0.74363462	1.4324546	-0.018515979	-0.7819353	1.0960455	-0.25209408	-0.71004904	1.0473919	0.21958719	-0.67590802	0.87562502	-0.27187617	-0.51550411	0.89298917	0.23293069
131	0.52	-0.25568975	0.085976542	-0.10347701	-0.74105735	0.038909771	0.034021097	-0.39200556	0.0753448	-0.11052408	-0.88220444	0.056043236	0.065767454	-0.3759507	0.10732113	-0.031011375	-0.86062699	0.08160022	-0.018639955	-0.43700409	0.033438109	-0.053093236	-0.93264006	0.033741643	0.015216716	-0.47972496	0.45663693	-0.14925246	-0.7543742	0.43899731	0.11065906	-0.45137406	0.44233528	-0.029961979	-0.73930082	0.44168966	-0.018894482	-0.60773139	0.82435724	-0.20931795	-0.69479268	0.84910031	0.16681529	-0.56899304	0.93553889	-0.13506613	-0.60617606	0.93808683	0.10947869	-0.78374211	0.94298952	-0.04761973	-0.64404575	1.4056211	-0.16773811	-0.66826342	1.3997045	0.15404073	-0.738667	1.4310609	-0.018486134	-0.77778098	1.0948971	-0.25188728	-0.70342763	1.0456413	0.21967654	-0.6722492	0.87434475	-0.27234638	-0.50731469	0.89294554	0.2313435
132	0.524	-0.24037539	0.08985742	-0.10245967	-0.74095401	0.038856539	0.033984657	-0.37654315	0.075793002	-0.11109961	-0.88207552	0.05619814	0.065584976	-0.36196416	0.10797209	-0.031305288	-0.86029874	0.081615926	-0.018848442	-0.4206164	0.032237139	-0.054505205	-0.93248909	0.034039223	0.014773158	-0.47408254	0.45477769	-0.14919755	-0.75125683	0.43824731	0.11046307	-0.44669573	0.440344	-0.029687243	-0.73602678	0.4409667	-0.019091106	-0.60172881	0.82278477	-0.20900254	-0.69038491	0.84816524	0.16682245	-0.56297013	0.93408959	-0.13490609	-0.60137352	0.93692042	0.10962067	-0.77849478	0.94184783	-0.048002894	-0.63885734	1.4040296	-0.16764521	-0.6631013	1.3982074	0.15404257	-0.73369593	1.4296271	-0.018451495	-0.77364641	1.0936878	-0.25179957	-0.6968042	1.0438454	0.21973957	-0.66843411	0.87304289	-0.27278204	-0.49916294	0.89286229	0.22973383
133	0.528	-0.22549504	0.093989995	-0.10136992	-0.74084249	0.038798984	0.033937071	-0.36138525	0.076466573	-0.11178545	-0.88177819	0.056363691	0.065337294	-0.34834473	0.1087474	-0.031696843	-0.85994073	0.081638425	-0.01906737	-0.40469415	0.031336787	-0.055977381	-0.93245934	0.034330955	0.014544337	-0.4683987	0.45290622	-0.14916287	-0.74802214	0.43749371	0.11029885	-0.44208519	0.43824043	-0.029425304	-0.73267839	0.44020821	-0.019298649	-0.59581399	0.82109496	-0.20867613	-0.68595667	0.84719723	0.16682761	-0.55688537	0.93255024	-0.1347406	-0.59655744	0.9357066	0.10975347	-0.77323017	0.94091244	-0.046971621	-0.6337509	1.4024049	-0.16757682	-0.65792053	1.396665	0.1540421	-0.72871867	1.4281527	-0.018413716	-0.76948566	1.0924349	-0.25170544	-0.69018326	1.0420042	0.21977637	-0.66442429	0.87172282	-0.27316666	-0.49106099	0.89273556	0.22811265
134	0.532	-0.21106404	0.098279162	-0.1001845	-0.74072715	0.038740208	0.033879808	-0.34652075	0.077342312	-0.11254657	-0.88148831	0.056538528	0.065149217	-0.33511138	0.10958078	-0.032121105	-0.8595597	0.081667579	-0.019289306	-0.38921938	0.03069867	-0.057532351	-0.93256537	0.034612206	0.014599691	-0.46261519	0.45103017	-0.14917857	-0.74476422	0.43670973	0.11012304	-0.43753203	0.43602452	-0.029184477	-0.72926206	0.43941468	-0.019505486	-0.58996659	0.81930453	-0.20833853	-0.68151036	0.84619297	0.16683174	-0.55068991	0.93095951	-0.1345438	-0.59170704	0.93444992	0.10987698	-0.76843617	0.9401832	-0.044902778	-0.62874705	1.4007498	-0.16754008	-0.65274277	1.3950718	0.15403865	-0.72373398	1.4266361	-0.018376736	-0.76527925	1.0911444	-0.25157001	-0.68357271	1.040123	0.21979332	-0.66027263	0.87037684	-0.27350853	-0.48301802	0.89255749	0.22648388
135	0.536	-0.19708275	0.1026052	-0.098887826	-0.74061123	0.038682398	0.033820514	-0.33194275	0.078383114	-0.11331288	-0.88134604	0.056731812	0.065076454	-0.32228884	0.11042796	-0.032528036	-0.85916997	0.081704891	-0.019504222	-0.37419735	0.030299746	-0.059180474	-0.93268931	0.03491129	0.01472365	-0.45670838	0.44917527	-0.14924495	-0.74156554	0.43587507	0.1098998	-0.43300646	0.4337042	-0.028961825	-0.7257791	0.43859161	-0.019706802	-0.58409189	0.81743709	-0.20798895	-0.67704587	0.84516064	0.16682498	-0.54438227	0.92935314	-0.13432147	-0.58682688	0.9331565	0.10999777	-0.76396068	0.93940186	-0.042955074	-0.62376767	1.3990704	-0.16751792	-0.64757825	1.3934297	0.15403352	-0.71874249	1.4250771	-0.018344765	-0.76103863	1.0898139	-0.25143064	-0.67697379	1.0382064	0.21979298	-0.65603277	0.86900276	-0.27382121	-0.4750348	0.89232848	0.22483652
